<?xml version="1.0" standalone="no"?>
<!DOCTYPE svg PUBLIC "-//W3C//DTD SVG 20010904//EN"
 "http://www.w3.org/TR/2001/REC-SVG-20010904/DTD/svg10.dtd">
<svg version="1.0" xmlns="http://www.w3.org/2000/svg"
 width="512.000000pt" height="512.000000pt" viewBox="0 0 512.000000 512.000000"
 preserveAspectRatio="xMidYMid meet">
<metadata>
Created by potrace 1.14, written by Peter Selinger 2001-2017
</metadata>
<g transform="translate(0.000000,512.000000) scale(0.100000,-0.100000)"
fill="#000000" stroke="none">
<path d="M2450 5106 c-51 -13 -98 -38 -360 -191 -102 -59 -203 -117 -225 -130
-22 -12 -107 -61 -189 -109 -82 -47 -151 -86 -153 -86 -2 0 -16 -8 -31 -19
-15 -10 -225 -132 -467 -271 -535 -308 -583 -336 -613 -369 -41 -43 -77 -103
-102 -166 l-25 -60 0 -1120 c0 -616 3 -1140 7 -1165 14 -83 67 -180 131 -240
18 -17 115 -79 217 -138 102 -59 192 -111 202 -117 9 -5 29 -17 45 -26 15 -8
118 -67 228 -131 223 -129 237 -137 391 -226 60 -35 116 -67 124 -72 8 -5 157
-91 330 -190 173 -99 322 -185 330 -191 8 -5 48 -26 89 -46 71 -35 80 -37 175
-38 75 0 113 5 148 18 39 15 438 240 473 267 6 4 35 21 65 37 30 16 132 74
225 128 94 54 253 147 355 205 925 533 877 503 937 591 38 57 61 113 71 169 4
25 7 549 7 1165 -1 948 -3 1126 -15 1160 -20 53 -72 142 -109 183 -25 27 -167
117 -348 218 -23 13 -183 106 -355 205 -172 100 -338 196 -368 212 -30 17
-158 91 -283 164 -126 73 -230 133 -233 133 -3 0 -30 16 -60 35 -30 19 -56 35
-58 35 -2 0 -65 36 -140 80 -76 45 -161 87 -189 94 -65 17 -168 18 -227 2z"/>
</g>
</svg>
